<svg xmlns="http://www.w3.org/2000/svg" viewBox="0 0 800 450" width="800" height="450">
<defs><style>text { font-family: -apple-system, BlinkMacSystemFont, 'Segoe UI', sans-serif; }</style></defs>
<rect width="800" height="450" fill="#f4f5f7" rx="8"/>
<!-- Sidebar -->
<rect x="0" y="0" width="180" height="450" fill="#ffffff"/><line x1="180" y1="0" x2="180" y2="450" stroke="#e5e7eb"/>
<rect x="8" y="124" width="164" height="30" rx="6" fill="#ecfdf5"/><circle cx="28" cy="139" r="4" fill="#10b981"/><text x="42" y="143" font-size="12" fill="#10b981" font-weight="600">Design</text>
<!-- Header -->
<rect x="180" y="0" width="620" height="44" fill="#ffffff"/><line x1="180" y1="44" x2="800" y2="44" stroke="#e5e7eb"/>
<text x="210" y="74" font-size="20" font-weight="700" fill="#1f2937">Design</text>
<rect x="700" y="56" width="70" height="28" rx="6" fill="#10b981"/><text x="735" y="74" font-size="10" fill="#ffffff" text-anchor="middle" font-weight="500">Save</text>
<!-- Design sections sidebar -->
<rect x="196" y="90" width="140" height="340" rx="8" fill="#ffffff" stroke="#e5e7eb"/>
<text x="216" y="116" font-size="10" fill="#6b7280">Branding</text>
<rect x="200" y="126" width="132" height="28" rx="4" fill="#ecfdf5"/><text x="216" y="144" font-size="10" fill="#10b981" font-weight="500">Colors</text>
<text x="216" y="168" font-size="10" fill="#6b7280">Typography</text>
<text x="216" y="192" font-size="10" fill="#6b7280">Layout &amp; Style</text>
<text x="216" y="216" font-size="10" fill="#6b7280">Checkout</text>
<text x="216" y="240" font-size="10" fill="#6b7280">Thank You</text>
<text x="216" y="264" font-size="10" fill="#6b7280">SEO</text>
<text x="216" y="288" font-size="10" fill="#6b7280">Preferences</text>
<!-- Colors content -->
<text x="350" y="108" font-size="12" font-weight="600" fill="#1f2937">Color Presets</text>
<!-- Preset swatches grid -->
<rect x="350" y="118" width="36" height="36" rx="8" fill="#10b981" stroke="#10b981" stroke-width="2"/>
<text x="368" y="140" font-size="6" fill="#fff" text-anchor="middle">✓</text>
<rect x="394" y="118" width="36" height="36" rx="8" fill="#3b82f6"/>
<rect x="438" y="118" width="36" height="36" rx="8" fill="#f43f5e"/>
<rect x="482" y="118" width="36" height="36" rx="8" fill="#8b5cf6"/>
<rect x="526" y="118" width="36" height="36" rx="8" fill="#f59e0b"/>
<rect x="350" y="162" width="36" height="36" rx="8" fill="#14b8a6"/>
<rect x="394" y="162" width="36" height="36" rx="8" fill="#ec4899"/>
<rect x="438" y="162" width="36" height="36" rx="8" fill="#06b6d4"/>
<rect x="482" y="162" width="36" height="36" rx="8" fill="#84cc16"/>
<rect x="526" y="162" width="36" height="36" rx="8" fill="#6366f1"/>
<!-- Custom colors -->
<text x="350" y="226" font-size="12" font-weight="600" fill="#1f2937">Custom Colors</text>
<text x="350" y="248" font-size="10" fill="#6b7280">Primary</text>
<rect x="350" y="256" width="80" height="28" rx="6" fill="#ffffff" stroke="#d1d5db"/>
<rect x="354" y="260" width="20" height="20" rx="4" fill="#10b981"/>
<text x="380" y="274" font-size="9" fill="#1f2937">#10b981</text>

<text x="450" y="248" font-size="10" fill="#6b7280">Accent</text>
<rect x="450" y="256" width="80" height="28" rx="6" fill="#ffffff" stroke="#d1d5db"/>
<rect x="454" y="260" width="20" height="20" rx="4" fill="#059669"/>
<text x="480" y="274" font-size="9" fill="#1f2937">#059669</text>

<text x="350" y="304" font-size="10" fill="#6b7280">Background</text>
<rect x="350" y="312" width="80" height="28" rx="6" fill="#ffffff" stroke="#d1d5db"/>
<rect x="354" y="316" width="20" height="20" rx="4" fill="#ffffff" stroke="#e5e7eb"/>
<text x="380" y="330" font-size="9" fill="#1f2937">#ffffff</text>

<text x="450" y="304" font-size="10" fill="#6b7280">Text</text>
<rect x="450" y="312" width="80" height="28" rx="6" fill="#ffffff" stroke="#d1d5db"/>
<rect x="454" y="316" width="20" height="20" rx="4" fill="#1f2937"/>
<text x="480" y="330" font-size="9" fill="#1f2937">#1f2937</text>
<!-- Phone preview with green theme -->
<rect x="630" y="90" width="140" height="270" rx="16" fill="#ffffff" stroke="#e5e7eb" stroke-width="2"/>
<rect x="675" y="96" width="50" height="10" rx="5" fill="#e5e7eb"/>
<rect x="636" y="112" width="128" height="28" rx="0" fill="#10b981" opacity="0.15"/>
<text x="700" y="130" font-size="7" font-weight="600" fill="#059669" text-anchor="middle">My Store</text>
<rect x="642" y="148" width="56" height="56" rx="4" fill="#f4f5f7"/>
<rect x="704" y="148" width="56" height="56" rx="4" fill="#f4f5f7"/>
<rect x="642" y="210" width="56" height="14" rx="3" fill="#10b981"/>
<rect x="704" y="210" width="56" height="14" rx="3" fill="#10b981"/>
<!-- Annotations -->
<g class="doc-annotations">
<rect x="348" y="116" width="216" height="86" fill="none" stroke="#ef4444" stroke-width="2" stroke-dasharray="6 3" rx="8"/>
<circle cx="574" cy="136" r="10" fill="#ef4444"/><text x="574" y="140" font-size="10" fill="#fff" text-anchor="middle" font-weight="700">1</text>
<rect x="348" y="252" width="186" height="92" fill="none" stroke="#ef4444" stroke-width="2" stroke-dasharray="6 3" rx="8"/>
<circle cx="544" cy="298" r="10" fill="#ef4444"/><text x="544" y="302" font-size="10" fill="#fff" text-anchor="middle" font-weight="700">2</text>
</g>
</svg>
