<svg xmlns="http://www.w3.org/2000/svg" viewBox="0 0 800 450" width="800" height="450">
<defs><style>text { font-family: -apple-system, BlinkMacSystemFont, 'Segoe UI', sans-serif; }</style></defs>
<rect width="800" height="450" fill="#f4f5f7" rx="8"/>
<!-- Sidebar -->
<rect x="0" y="0" width="180" height="450" fill="#ffffff"/><line x1="180" y1="0" x2="180" y2="450" stroke="#e5e7eb"/>
<circle cx="28" cy="67" r="4" fill="#6b7280" opacity="0.5"/><text x="42" y="71" font-size="12" fill="#6b7280">Overview</text>
<circle cx="28" cy="103" r="4" fill="#6b7280" opacity="0.5"/><text x="42" y="107" font-size="12" fill="#6b7280">Store</text>
<rect x="8" y="124" width="164" height="30" rx="6" fill="#ecfdf5"/><circle cx="28" cy="139" r="4" fill="#10b981"/><text x="42" y="143" font-size="12" fill="#10b981" font-weight="600">Design</text>
<circle cx="28" cy="175" r="4" fill="#6b7280" opacity="0.5"/><text x="42" y="179" font-size="12" fill="#6b7280">Products</text>
<circle cx="28" cy="211" r="4" fill="#6b7280" opacity="0.5"/><text x="42" y="215" font-size="12" fill="#6b7280">Collections</text>
<circle cx="28" cy="247" r="4" fill="#6b7280" opacity="0.5"/><text x="42" y="251" font-size="12" fill="#6b7280">Orders</text>
<!-- Header -->
<rect x="180" y="0" width="620" height="44" fill="#ffffff"/><line x1="180" y1="44" x2="800" y2="44" stroke="#e5e7eb"/>
<text x="200" y="27" font-size="11" fill="#10b981">View store ↗</text>
<!-- Page title + save -->
<text x="210" y="74" font-size="20" font-weight="700" fill="#1f2937">Design</text>
<rect x="700" y="56" width="70" height="28" rx="6" fill="#10b981"/><text x="735" y="74" font-size="10" fill="#ffffff" text-anchor="middle" font-weight="500">Save</text>
<!-- Design sections sidebar -->
<rect x="196" y="90" width="140" height="340" rx="8" fill="#ffffff" stroke="#e5e7eb"/>
<rect x="200" y="98" width="132" height="28" rx="4" fill="#ecfdf5"/><text x="216" y="116" font-size="10" fill="#10b981" font-weight="500">Branding</text>
<text x="216" y="144" font-size="10" fill="#6b7280">Colors</text>
<text x="216" y="168" font-size="10" fill="#6b7280">Typography</text>
<text x="216" y="192" font-size="10" fill="#6b7280">Layout &amp; Style</text>
<text x="216" y="216" font-size="10" fill="#6b7280">Checkout</text>
<text x="216" y="240" font-size="10" fill="#6b7280">Thank You</text>
<text x="216" y="264" font-size="10" fill="#6b7280">SEO</text>
<text x="216" y="288" font-size="10" fill="#6b7280">Preferences</text>
<!-- Branding content -->
<text x="350" y="106" font-size="11" font-weight="500" fill="#1f2937">Logo</text>
<rect x="350" y="114" width="80" height="80" rx="6" fill="#f4f5f7" stroke="#d1d5db" stroke-dasharray="4"/>
<text x="390" y="158" font-size="9" fill="#6b7280" text-anchor="middle">Upload</text>
<text x="450" y="106" font-size="11" font-weight="500" fill="#1f2937">Banner</text>
<rect x="450" y="114" width="120" height="80" rx="6" fill="#f4f5f7" stroke="#d1d5db" stroke-dasharray="4"/>
<text x="510" y="158" font-size="9" fill="#6b7280" text-anchor="middle">Upload</text>
<!-- Announcement bar -->
<text x="350" y="218" font-size="11" font-weight="500" fill="#1f2937">Announcement Bar</text>
<text x="350" y="234" font-size="9" fill="#6b7280">Show a banner at the top of your store</text>
<rect x="350" y="244" width="220" height="30" rx="6" fill="#ffffff" stroke="#d1d5db"/><text x="362" y="263" font-size="10" fill="#9ca3af">Announcement text...</text>
<!-- Phone preview -->
<rect x="630" y="90" width="140" height="270" rx="16" fill="#ffffff" stroke="#e5e7eb" stroke-width="2"/>
<!-- Dynamic island -->
<rect x="675" y="96" width="50" height="10" rx="5" fill="#e5e7eb"/>
<!-- Store header -->
<rect x="636" y="112" width="128" height="28" rx="0" fill="#10b981" opacity="0.15"/>
<text x="700" y="130" font-size="7" font-weight="600" fill="#059669" text-anchor="middle">My Store</text>
<!-- Product grid -->
<rect x="642" y="148" width="56" height="56" rx="4" fill="#f4f5f7"/>
<rect x="704" y="148" width="56" height="56" rx="4" fill="#f4f5f7"/>
<text x="670" y="220" font-size="6" fill="#1f2937" text-anchor="middle">Product 1</text>
<text x="732" y="220" font-size="6" fill="#1f2937" text-anchor="middle">Product 2</text>
<rect x="642" y="228" width="56" height="14" rx="3" fill="#10b981"/>
<rect x="704" y="228" width="56" height="14" rx="3" fill="#10b981"/>
<text x="670" y="238" font-size="5" fill="#ffffff" text-anchor="middle">Add to cart</text>
<text x="732" y="238" font-size="5" fill="#ffffff" text-anchor="middle">Add to cart</text>
<!-- Annotations -->
<g class="doc-annotations">
<circle cx="90" cy="139" r="16" fill="#ef4444" opacity="0.10"/><circle cx="90" cy="139" r="16" fill="none" stroke="#ef4444" stroke-width="2" stroke-dasharray="4 2"/>
<rect x="110" y="130" width="37.5" height="17" rx="4" fill="#ef4444"/><text x="115" y="142" font-size="9" fill="#fff" font-weight="600">Click</text>
</g>
</svg>
