<svg xmlns="http://www.w3.org/2000/svg" viewBox="0 0 800 450" width="800" height="450">
<defs><style>text { font-family: -apple-system, BlinkMacSystemFont, 'Segoe UI', sans-serif; }</style></defs>
<rect width="800" height="450" fill="#f4f5f7" rx="8"/>
<!-- Sidebar -->
<rect x="0" y="0" width="180" height="450" fill="#ffffff"/><line x1="180" y1="0" x2="180" y2="450" stroke="#e5e7eb"/>
<circle cx="28" cy="67" r="4" fill="#6b7280" opacity="0.5"/><text x="42" y="71" font-size="12" fill="#6b7280">Overview</text>
<circle cx="28" cy="103" r="4" fill="#6b7280" opacity="0.5"/><text x="42" y="107" font-size="12" fill="#6b7280">Store</text>
<circle cx="28" cy="139" r="4" fill="#6b7280" opacity="0.5"/><text x="42" y="143" font-size="12" fill="#6b7280">Design</text>
<circle cx="28" cy="175" r="4" fill="#6b7280" opacity="0.5"/><text x="42" y="179" font-size="12" fill="#6b7280">Products</text>
<circle cx="28" cy="211" r="4" fill="#6b7280" opacity="0.5"/><text x="42" y="215" font-size="12" fill="#6b7280">Collections</text>
<!-- Orders section expanded -->
<rect x="8" y="232" width="164" height="30" rx="6" fill="#ecfdf5"/><circle cx="28" cy="247" r="4" fill="#10b981"/><text x="42" y="251" font-size="12" fill="#10b981" font-weight="600">Orders</text><text x="158" y="251" font-size="10" fill="#10b981">▾</text>
<!-- Sub-items with left border -->
<line x1="30" y1="268" x2="30" y2="306" stroke="#e5e7eb"/>
<text x="46" y="281" font-size="11" fill="#6b7280">Orders</text>
<rect x="36" y="290" width="130" height="24" rx="4" fill="#ecfdf5"/><text x="46" y="306" font-size="11" fill="#10b981" font-weight="500">Checkouts</text>
<!-- Rest of sidebar -->
<circle cx="28" cy="331" r="4" fill="#6b7280" opacity="0.5"/><text x="42" y="335" font-size="12" fill="#6b7280">Discounts</text>
<circle cx="28" cy="367" r="4" fill="#6b7280" opacity="0.5"/><text x="42" y="371" font-size="12" fill="#6b7280">Markets</text>
<circle cx="28" cy="403" r="4" fill="#6b7280" opacity="0.5"/><text x="42" y="407" font-size="12" fill="#6b7280">Shipping</text>
<!-- Header -->
<rect x="180" y="0" width="620" height="44" fill="#ffffff"/><line x1="180" y1="44" x2="800" y2="44" stroke="#e5e7eb"/>
<text x="200" y="27" font-size="11" fill="#10b981">View store ↗</text>
<!-- Page content -->
<text x="210" y="74" font-size="20" font-weight="700" fill="#1f2937">Abandoned Checkouts</text>
<!-- Table -->
<rect x="210" y="94" width="560" height="30" rx="0" fill="#f4f5f7"/>
<text x="218" y="113" font-size="10" font-weight="500" fill="#6b7280">Customer</text>
<text x="330" y="113" font-size="10" font-weight="500" fill="#6b7280">Phone</text>
<text x="450" y="113" font-size="10" font-weight="500" fill="#6b7280">Cart Value</text>
<text x="550" y="113" font-size="10" font-weight="500" fill="#6b7280">Status</text>
<text x="660" y="113" font-size="10" font-weight="500" fill="#6b7280">Time</text>
<!-- Row 1 -->
<text x="218" y="143" font-size="10" fill="#1f2937">Ahmed K.</text>
<text x="330" y="143" font-size="10" fill="#6b7280">+213 5xx xxx</text>
<text x="450" y="143" font-size="10" fill="#1f2937" font-weight="500">$89.00</text>
<rect x="548" y="131" width="62" height="18" rx="9" fill="#fef3c7"/><text x="556" y="143" font-size="9" fill="#d97706">Pending</text>
<text x="660" y="143" font-size="10" fill="#6b7280">2h ago</text>
<line x1="210" y1="155" x2="770" y2="155" stroke="#f0f0f0"/>
<!-- Row 2 -->
<text x="218" y="175" font-size="10" fill="#1f2937">Sara M.</text>
<text x="330" y="175" font-size="10" fill="#6b7280">+212 6xx xxx</text>
<text x="450" y="175" font-size="10" fill="#1f2937" font-weight="500">$124.50</text>
<rect x="548" y="163" width="52" height="18" rx="9" fill="#dbeafe"/><text x="556" y="175" font-size="9" fill="#2563eb">Sent</text>
<text x="660" y="175" font-size="10" fill="#6b7280">4h ago</text>
<line x1="210" y1="187" x2="770" y2="187" stroke="#f0f0f0"/>
<!-- Row 3 -->
<text x="218" y="207" font-size="10" fill="#1f2937">Omar B.</text>
<text x="330" y="207" font-size="10" fill="#6b7280">+966 5xx xxx</text>
<text x="450" y="207" font-size="10" fill="#1f2937" font-weight="500">$67.00</text>
<rect x="548" y="195" width="70" height="18" rx="9" fill="#dcfce7"/><text x="556" y="207" font-size="9" fill="#16a34a">Recovered</text>
<text x="660" y="207" font-size="10" fill="#6b7280">6h ago</text>
<line x1="210" y1="219" x2="770" y2="219" stroke="#f0f0f0"/>
<!-- Row 4 -->
<text x="218" y="239" font-size="10" fill="#1f2937">Fatima L.</text>
<text x="330" y="239" font-size="10" fill="#6b7280">+216 9xx xxx</text>
<text x="450" y="239" font-size="10" fill="#1f2937" font-weight="500">$45.00</text>
<rect x="548" y="227" width="58" height="18" rx="9" fill="#f3f4f6"/><text x="556" y="239" font-size="9" fill="#6b7280">Expired</text>
<text x="660" y="239" font-size="10" fill="#6b7280">2d ago</text>
<line x1="210" y1="251" x2="770" y2="251" stroke="#f0f0f0"/>
<!-- Row 5 -->
<text x="218" y="271" font-size="10" fill="#1f2937">Youssef A.</text>
<text x="330" y="271" font-size="10" fill="#6b7280">+20 10xx xxx</text>
<text x="450" y="271" font-size="10" fill="#1f2937" font-weight="500">$156.00</text>
<rect x="548" y="259" width="62" height="18" rx="9" fill="#fef3c7"/><text x="556" y="271" font-size="9" fill="#d97706">Pending</text>
<text x="660" y="271" font-size="10" fill="#6b7280">35m ago</text>
<!-- Annotations -->
<g class="doc-annotations">
<circle cx="157" cy="300" r="10" fill="#ef4444"/><text x="157" y="304" font-size="10" fill="#fff" text-anchor="middle" font-weight="700">1</text>
<rect x="34" y="288" width="134" height="28" fill="none" stroke="#ef4444" stroke-width="2" stroke-dasharray="6 3" rx="6"/>
</g>
</svg>
