<svg xmlns="http://www.w3.org/2000/svg" viewBox="0 0 800 450" width="800" height="450">
<defs><style>text { font-family: -apple-system, BlinkMacSystemFont, 'Segoe UI', sans-serif; }</style></defs>
<rect width="800" height="450" fill="#f4f5f7" rx="8"/>
<!-- Sidebar -->
<rect x="0" y="0" width="180" height="450" fill="#ffffff"/><line x1="180" y1="0" x2="180" y2="450" stroke="#e5e7eb"/>
<circle cx="28" cy="67" r="4" fill="#6b7280" opacity="0.5"/><text x="42" y="71" font-size="12" fill="#6b7280">Overview</text>
<circle cx="28" cy="103" r="4" fill="#6b7280" opacity="0.5"/><text x="42" y="107" font-size="12" fill="#6b7280">Store</text>
<circle cx="28" cy="139" r="4" fill="#6b7280" opacity="0.5"/><text x="42" y="143" font-size="12" fill="#6b7280">Design</text>
<circle cx="28" cy="175" r="4" fill="#6b7280" opacity="0.5"/><text x="42" y="179" font-size="12" fill="#6b7280">Products</text>
<rect x="8" y="196" width="164" height="30" rx="6" fill="#ecfdf5"/><circle cx="28" cy="211" r="4" fill="#10b981"/><text x="42" y="215" font-size="12" fill="#10b981" font-weight="600">Collections</text>
<circle cx="28" cy="247" r="4" fill="#6b7280" opacity="0.5"/><text x="42" y="251" font-size="12" fill="#6b7280">Orders</text>
<circle cx="28" cy="283" r="4" fill="#6b7280" opacity="0.5"/><text x="42" y="287" font-size="12" fill="#6b7280">Discounts</text>
<circle cx="28" cy="319" r="4" fill="#6b7280" opacity="0.5"/><text x="42" y="323" font-size="12" fill="#6b7280">Markets</text>
<circle cx="28" cy="355" r="4" fill="#6b7280" opacity="0.5"/><text x="42" y="359" font-size="12" fill="#6b7280">Integrations</text>
<circle cx="28" cy="391" r="4" fill="#6b7280" opacity="0.5"/><text x="42" y="395" font-size="12" fill="#6b7280">Settings</text>
<!-- Header -->
<rect x="180" y="0" width="620" height="44" fill="#ffffff"/><line x1="180" y1="44" x2="800" y2="44" stroke="#e5e7eb"/>
<text x="200" y="27" font-size="11" fill="#10b981">View store ↗</text>
<!-- Page content -->
<text x="210" y="74" font-size="20" font-weight="700" fill="#1f2937">Collections</text>
<rect x="640" y="56" width="130" height="32" rx="6" fill="#10b981"/><text x="705" y="76" font-size="11" fill="#ffffff" text-anchor="middle" font-weight="500">Create Collection</text>
<!-- Table header -->
<rect x="210" y="94" width="560" height="30" fill="#f4f5f7"/>
<text x="226" y="113" font-size="10" font-weight="500" fill="#6b7280">Name</text>
<text x="540" y="113" font-size="10" font-weight="500" fill="#6b7280">Products</text>
<text x="720" y="113" font-size="10" font-weight="500" fill="#6b7280" text-anchor="end">Actions</text>
<!-- Row 1 -->
<text x="226" y="147" font-size="11" fill="#1f2937">Best Sellers</text>
<text x="540" y="147" font-size="11" fill="#6b7280">12</text>
<text x="720" y="147" font-size="11" fill="#6b7280" text-anchor="end">⋯</text>
<line x1="210" y1="157" x2="770" y2="157" stroke="#f0f0f0"/>
<!-- Row 2 -->
<text x="226" y="179" font-size="11" fill="#1f2937">New Arrivals</text>
<text x="540" y="179" font-size="11" fill="#6b7280">5</text>
<text x="720" y="179" font-size="11" fill="#6b7280" text-anchor="end">⋯</text>
<line x1="210" y1="189" x2="770" y2="189" stroke="#f0f0f0"/>
<!-- Row 3 -->
<text x="226" y="211" font-size="11" fill="#1f2937">Sale</text>
<text x="540" y="211" font-size="11" fill="#6b7280">8</text>
<text x="720" y="211" font-size="11" fill="#6b7280" text-anchor="end">⋯</text>
<line x1="210" y1="221" x2="770" y2="221" stroke="#f0f0f0"/>
<!-- Empty state hint -->
<text x="490" y="280" font-size="11" fill="#9ca3af" text-anchor="middle">Click "Create Collection" to add a new collection</text>
<!-- Annotations -->
<g class="doc-annotations">
<circle cx="157" cy="211" r="10" fill="#ef4444"/><text x="157" y="215" font-size="10" fill="#fff" text-anchor="middle" font-weight="700">1</text>
<circle cx="90" cy="211" r="16" fill="#ef4444" opacity="0.10"/><circle cx="90" cy="211" r="16" fill="none" stroke="#ef4444" stroke-width="2" stroke-dasharray="4 2"/>
<rect x="110" y="202" width="37.5" height="17" rx="4" fill="#ef4444"/><text x="115" y="214" font-size="9" fill="#fff" font-weight="600">Click</text>
<circle cx="627" cy="72" r="10" fill="#ef4444"/><text x="627" y="76" font-size="10" fill="#fff" text-anchor="middle" font-weight="700">2</text>
<circle cx="705" cy="72" r="16" fill="#ef4444" opacity="0.10"/><circle cx="705" cy="72" r="16" fill="none" stroke="#ef4444" stroke-width="2" stroke-dasharray="4 2"/>
<rect x="725" y="63" width="37.5" height="17" rx="4" fill="#ef4444"/><text x="730" y="75" font-size="9" fill="#fff" font-weight="600">Click</text>
</g>
</svg>
