<svg xmlns="http://www.w3.org/2000/svg" viewBox="0 0 800 450" width="800" height="450">
<defs><style>text { font-family: -apple-system, BlinkMacSystemFont, 'Segoe UI', sans-serif; }</style></defs>
<rect width="800" height="450" fill="#f4f5f7" rx="8"/>
<!-- Sidebar -->
<rect x="0" y="0" width="180" height="450" fill="#ffffff"/><line x1="180" y1="0" x2="180" y2="450" stroke="#e5e7eb"/>
<circle cx="28" cy="67" r="4" fill="#6b7280" opacity="0.5"/><text x="42" y="71" font-size="12" fill="#6b7280">Overview</text>
<circle cx="28" cy="103" r="4" fill="#6b7280" opacity="0.5"/><text x="42" y="107" font-size="12" fill="#6b7280">Store</text>
<circle cx="28" cy="139" r="4" fill="#6b7280" opacity="0.5"/><text x="42" y="143" font-size="12" fill="#6b7280">Design</text>
<circle cx="28" cy="175" r="4" fill="#6b7280" opacity="0.5"/><text x="42" y="179" font-size="12" fill="#6b7280">Products</text>
<circle cx="28" cy="247" r="4" fill="#6b7280" opacity="0.5"/><text x="42" y="251" font-size="12" fill="#6b7280">Orders</text>
<circle cx="28" cy="319" r="4" fill="#6b7280" opacity="0.5"/><text x="42" y="323" font-size="12" fill="#6b7280">Shipping</text>
<rect x="8" y="340" width="164" height="30" rx="6" fill="#ecfdf5"/><circle cx="28" cy="355" r="4" fill="#10b981"/><text x="42" y="359" font-size="12" fill="#10b981" font-weight="600">Integrations</text>
<circle cx="28" cy="391" r="4" fill="#6b7280" opacity="0.5"/><text x="42" y="395" font-size="12" fill="#6b7280">Settings</text>
<!-- Header -->
<rect x="180" y="0" width="620" height="44" fill="#ffffff"/><line x1="180" y1="44" x2="800" y2="44" stroke="#e5e7eb"/>
<text x="200" y="27" font-size="11" fill="#10b981">View store ↗</text>
<!-- Page -->
<text x="210" y="74" font-size="20" font-weight="700" fill="#1f2937">Integrations</text>
<!-- Analytics -->
<text x="210" y="100" font-size="10" font-weight="600" fill="#6b7280" letter-spacing="0.5">ANALYTICS</text>
<rect x="210" y="110" width="175" height="80" rx="8" fill="#ffffff" stroke="#e5e7eb"/>
<circle cx="230" cy="132" r="10" fill="#eff6ff"/><text x="230" y="136" font-size="7" fill="#3b82f6" text-anchor="middle" font-weight="700">f</text>
<text x="248" y="130" font-size="10" font-weight="600" fill="#1f2937">Meta Conversions API</text>
<text x="226" y="148" font-size="8" fill="#6b7280">Server-side Purchase events</text>
<rect x="226" y="158" width="44" height="20" rx="5" fill="#10b981"/><text x="248" y="172" font-size="8" fill="#ffffff" text-anchor="middle">Install</text>

<rect x="395" y="110" width="175" height="80" rx="8" fill="#ffffff" stroke="#e5e7eb"/>
<circle cx="415" cy="132" r="10" fill="#111"/><text x="415" y="136" font-size="7" fill="#fff" text-anchor="middle" font-weight="700">T</text>
<text x="433" y="130" font-size="10" font-weight="600" fill="#1f2937">TikTok Events API</text>
<text x="411" y="148" font-size="8" fill="#6b7280">CompletePayment events</text>
<rect x="411" y="158" width="44" height="20" rx="5" fill="#10b981"/><text x="433" y="172" font-size="8" fill="#ffffff" text-anchor="middle">Install</text>

<rect x="580" y="110" width="175" height="80" rx="8" fill="#ffffff" stroke="#e5e7eb"/>
<circle cx="600" cy="132" r="10" fill="#fef3c7"/><text x="600" y="136" font-size="7" fill="#d97706" text-anchor="middle" font-weight="700">G</text>
<text x="618" y="130" font-size="10" font-weight="600" fill="#1f2937">Google Analytics</text>
<text x="596" y="148" font-size="8" fill="#6b7280">Track store traffic</text>
<rect x="596" y="158" width="44" height="20" rx="5" fill="#10b981"/><text x="618" y="172" font-size="8" fill="#ffffff" text-anchor="middle">Install</text>

<!-- Notifications -->
<text x="210" y="214" font-size="10" font-weight="600" fill="#6b7280" letter-spacing="0.5">NOTIFICATIONS</text>
<rect x="210" y="224" width="175" height="80" rx="8" fill="#ffffff" stroke="#e5e7eb"/>
<circle cx="230" cy="246" r="10" fill="#dcfce7"/><text x="230" y="250" font-size="7" fill="#16a34a" text-anchor="middle" font-weight="700">W</text>
<text x="248" y="244" font-size="10" font-weight="600" fill="#1f2937">WhatsApp</text>
<text x="226" y="262" font-size="8" fill="#6b7280">Order confirmations</text>
<rect x="226" y="272" width="44" height="20" rx="5" fill="#10b981"/><text x="248" y="286" font-size="8" fill="#ffffff" text-anchor="middle">Install</text>

<!-- Productivity - highlighted -->
<text x="210" y="328" font-size="10" font-weight="600" fill="#6b7280" letter-spacing="0.5">PRODUCTIVITY</text>
<rect x="210" y="338" width="175" height="80" rx="8" fill="#ffffff" stroke="#10b981" stroke-width="2"/>
<circle cx="230" cy="360" r="10" fill="#dbeafe"/><text x="230" y="364" font-size="7" fill="#2563eb" text-anchor="middle" font-weight="700">S</text>
<text x="248" y="358" font-size="10" font-weight="600" fill="#1f2937">Google Sheets</text>
<text x="226" y="376" font-size="8" fill="#6b7280">Sync orders to spreadsheet</text>
<rect x="226" y="386" width="44" height="20" rx="5" fill="#10b981"/><text x="248" y="400" font-size="8" fill="#ffffff" text-anchor="middle">Install</text>
<!-- Annotations -->
<g class="doc-annotations">
<circle cx="400" cy="380" r="10" fill="#ef4444"/><text x="400" y="384" font-size="10" fill="#fff" text-anchor="middle" font-weight="700">1</text>
<rect x="208" y="336" width="179" height="84" fill="none" stroke="#ef4444" stroke-width="2" stroke-dasharray="6 3" rx="10"/>
</g>
</svg>
