<svg xmlns="http://www.w3.org/2000/svg" viewBox="0 0 800 450" width="800" height="450">
<defs><style>text { font-family: -apple-system, BlinkMacSystemFont, 'Segoe UI', sans-serif; }</style></defs>
<rect width="800" height="450" fill="#f4f5f7" rx="8"/>
<!-- Sidebar -->
<rect x="0" y="0" width="180" height="450" fill="#ffffff"/><line x1="180" y1="0" x2="180" y2="450" stroke="#e5e7eb"/>
<circle cx="28" cy="67" r="4" fill="#6b7280" opacity="0.5"/><text x="42" y="71" font-size="12" fill="#6b7280">Overview</text>
<circle cx="28" cy="103" r="4" fill="#6b7280" opacity="0.5"/><text x="42" y="107" font-size="12" fill="#6b7280">Store</text>
<circle cx="28" cy="139" r="4" fill="#6b7280" opacity="0.5"/><text x="42" y="143" font-size="12" fill="#6b7280">Design</text>
<circle cx="28" cy="175" r="4" fill="#6b7280" opacity="0.5"/><text x="42" y="179" font-size="12" fill="#6b7280">Products</text>
<circle cx="28" cy="211" r="4" fill="#6b7280" opacity="0.5"/><text x="42" y="215" font-size="12" fill="#6b7280">Collections</text>
<circle cx="28" cy="247" r="4" fill="#6b7280" opacity="0.5"/><text x="42" y="251" font-size="12" fill="#6b7280">Orders</text>
<circle cx="28" cy="283" r="4" fill="#6b7280" opacity="0.5"/><text x="42" y="287" font-size="12" fill="#6b7280">Discounts</text>
<circle cx="28" cy="319" r="4" fill="#6b7280" opacity="0.5"/><text x="42" y="323" font-size="12" fill="#6b7280">Markets</text>
<circle cx="28" cy="355" r="4" fill="#6b7280" opacity="0.5"/><text x="42" y="359" font-size="12" fill="#6b7280">Shipping</text>
<rect x="8" y="376" width="164" height="30" rx="6" fill="#ecfdf5"/><circle cx="28" cy="391" r="4" fill="#10b981"/><text x="42" y="395" font-size="12" fill="#10b981" font-weight="600">Integrations</text>
<!-- Header -->
<rect x="180" y="0" width="620" height="44" fill="#ffffff"/><line x1="180" y1="44" x2="800" y2="44" stroke="#e5e7eb"/>
<text x="200" y="27" font-size="11" fill="#10b981">View store ↗</text>
<!-- Page -->
<text x="210" y="74" font-size="20" font-weight="700" fill="#1f2937">Integrations</text>
<!-- Analytics category -->
<text x="210" y="100" font-size="10" font-weight="600" fill="#6b7280" letter-spacing="0.5">ANALYTICS</text>
<rect x="210" y="110" width="175" height="90" rx="8" fill="#ffffff" stroke="#e5e7eb"/>
<circle cx="230" cy="134" r="10" fill="#eff6ff"/><text x="230" y="138" font-size="8" fill="#3b82f6" text-anchor="middle" font-weight="700">f</text>
<text x="248" y="132" font-size="11" font-weight="600" fill="#1f2937">Meta Conversions API</text>
<text x="226" y="152" font-size="8" fill="#6b7280">Server-side Purchase events</text>
<rect x="226" y="164" width="48" height="22" rx="5" fill="#10b981"/><text x="250" y="179" font-size="9" fill="#ffffff" text-anchor="middle">Install</text>

<rect x="395" y="110" width="175" height="90" rx="8" fill="#ffffff" stroke="#e5e7eb"/>
<circle cx="415" cy="134" r="10" fill="#111"/><text x="415" y="138" font-size="8" fill="#ffffff" text-anchor="middle" font-weight="700">T</text>
<text x="433" y="132" font-size="11" font-weight="600" fill="#1f2937">TikTok Events API</text>
<text x="411" y="152" font-size="8" fill="#6b7280">Server-side CompletePayment</text>
<rect x="411" y="164" width="48" height="22" rx="5" fill="#10b981"/><text x="435" y="179" font-size="9" fill="#ffffff" text-anchor="middle">Install</text>

<rect x="580" y="110" width="175" height="90" rx="8" fill="#ffffff" stroke="#e5e7eb"/>
<circle cx="600" cy="134" r="10" fill="#fef3c7"/><text x="600" y="138" font-size="8" fill="#d97706" text-anchor="middle" font-weight="700">G</text>
<text x="618" y="132" font-size="11" font-weight="600" fill="#1f2937">Google Analytics</text>
<text x="596" y="152" font-size="8" fill="#6b7280">Track store traffic &amp; behavior</text>
<rect x="596" y="164" width="48" height="22" rx="5" fill="#10b981"/><text x="620" y="179" font-size="9" fill="#ffffff" text-anchor="middle">Install</text>

<!-- Notifications category -->
<text x="210" y="224" font-size="10" font-weight="600" fill="#6b7280" letter-spacing="0.5">NOTIFICATIONS</text>
<rect x="210" y="234" width="175" height="90" rx="8" fill="#ffffff" stroke="#e5e7eb"/>
<circle cx="230" cy="258" r="10" fill="#dcfce7"/><text x="230" y="262" font-size="8" fill="#16a34a" text-anchor="middle" font-weight="700">W</text>
<text x="248" y="256" font-size="11" font-weight="600" fill="#1f2937">WhatsApp</text>
<text x="226" y="276" font-size="8" fill="#6b7280">Order confirmations via WhatsApp</text>
<rect x="226" y="288" width="48" height="22" rx="5" fill="#10b981"/><text x="250" y="303" font-size="9" fill="#ffffff" text-anchor="middle">Install</text>

<!-- Productivity category -->
<text x="210" y="348" font-size="10" font-weight="600" fill="#6b7280" letter-spacing="0.5">PRODUCTIVITY</text>
<rect x="210" y="358" width="175" height="90" rx="8" fill="#ffffff" stroke="#e5e7eb"/>
<circle cx="230" cy="382" r="10" fill="#dbeafe"/><text x="230" y="386" font-size="8" fill="#2563eb" text-anchor="middle" font-weight="700">S</text>
<text x="248" y="380" font-size="11" font-weight="600" fill="#1f2937">Google Sheets</text>
<text x="226" y="400" font-size="8" fill="#6b7280">Sync orders to spreadsheet</text>
<rect x="226" y="412" width="48" height="22" rx="5" fill="#10b981"/><text x="250" y="427" font-size="9" fill="#ffffff" text-anchor="middle">Install</text>
<!-- Annotations -->
<g class="doc-annotations">
<circle cx="90" cy="391" r="16" fill="#ef4444" opacity="0.10"/><circle cx="90" cy="391" r="16" fill="none" stroke="#ef4444" stroke-width="2" stroke-dasharray="4 2"/>
<rect x="110" y="382" width="37.5" height="17" rx="4" fill="#ef4444"/><text x="115" y="394" font-size="9" fill="#fff" font-weight="600">Click</text>
</g>
</svg>
