<svg xmlns="http://www.w3.org/2000/svg" viewBox="0 0 800 450" width="800" height="450">
<defs>
  <style>
    text { font-family: -apple-system, BlinkMacSystemFont, 'Segoe UI', sans-serif; }
  </style>
</defs>
<rect width="800" height="450" fill="#f4f5f7" rx="8"/><rect x="0" y="0" width="180" height="450" fill="#ffffff" rx="0"/><line x1="180" y1="0" x2="180" y2="450" stroke="#e5e7eb" stroke-width="1"/><circle cx="28" cy="67" r="4" fill="#6b7280" opacity="0.5"/><text x="42" y="71" font-size="12" fill="#6b7280" font-weight="400">Overview</text><circle cx="28" cy="103" r="4" fill="#6b7280" opacity="0.5"/><text x="42" y="107" font-size="12" fill="#6b7280" font-weight="400">Store</text><circle cx="28" cy="139" r="4" fill="#6b7280" opacity="0.5"/><text x="42" y="143" font-size="12" fill="#6b7280" font-weight="400">Products</text><circle cx="28" cy="175" r="4" fill="#6b7280" opacity="0.5"/><text x="42" y="179" font-size="12" fill="#6b7280" font-weight="400">Orders</text><rect x="8" y="196" width="164" height="30" rx="6" fill="#ecfdf5"/><circle cx="28" cy="211" r="4" fill="#10b981" opacity="0.5"/><text x="42" y="215" font-size="12" fill="#10b981" font-weight="600">Customers</text><circle cx="28" cy="247" r="4" fill="#6b7280" opacity="0.5"/><text x="42" y="251" font-size="12" fill="#6b7280" font-weight="400">Discounts</text><circle cx="28" cy="283" r="4" fill="#6b7280" opacity="0.5"/><text x="42" y="287" font-size="12" fill="#6b7280" font-weight="400">Markets</text><circle cx="28" cy="319" r="4" fill="#6b7280" opacity="0.5"/><text x="42" y="323" font-size="12" fill="#6b7280" font-weight="400">Shipping</text><circle cx="28" cy="355" r="4" fill="#6b7280" opacity="0.5"/><text x="42" y="359" font-size="12" fill="#6b7280" font-weight="400">Integrations</text><circle cx="28" cy="391" r="4" fill="#6b7280" opacity="0.5"/><text x="42" y="395" font-size="12" fill="#6b7280" font-weight="400">Settings</text><rect x="180" y="0" width="620" height="44" fill="#ffffff"/><line x1="180" y1="44" x2="800" y2="44" stroke="#e5e7eb" stroke-width="1"/><text x="210" y="74" font-size="20" font-weight="700" fill="#1f2937">Customers</text><rect x="210" y="90" width="400" height="34" rx="6" fill="#ffffff" stroke="#d1d5db" stroke-width="1"/><text x="222" y="111" font-size="11" fill="#9ca3af">Search by name, phone or email</text><rect x="620" y="90" width="150" height="34" rx="6" fill="#ffffff" stroke="#d1d5db" stroke-width="1"/><text x="636" y="111" font-size="11" fill="#6b7280">All countries</text><rect x="210" y="134" width="560" height="30" rx="0" fill="#f4f5f7"/><text x="218" y="153" font-size="10" font-weight="500" fill="#6b7280">Name</text><text x="338" y="153" font-size="10" font-weight="500" fill="#6b7280">Phone</text><text x="458" y="153" font-size="10" font-weight="500" fill="#6b7280">Country</text><text x="538" y="153" font-size="10" font-weight="500" fill="#6b7280">Orders</text><text x="598" y="153" font-size="10" font-weight="500" fill="#6b7280">Total Spent</text><text x="688" y="153" font-size="10" font-weight="500" fill="#6b7280">Last Order</text><line x1="210" y1="194" x2="770" y2="194" stroke="#f0f0f0" stroke-width="1"/><text x="218" y="184" font-size="10" fill="#1f2937" font-weight="500">Ahmed B.</text><text x="338" y="184" font-size="10" fill="#6b7280">213555123456</text><text x="458" y="184" font-size="10" fill="#6b7280">Algeria</text><text x="545" y="184" font-size="10" fill="#1f2937">5</text><text x="598" y="184" font-size="10" fill="#1f2937">12,500 DZD</text><text x="688" y="184" font-size="10" fill="#6b7280">2d ago</text><line x1="210" y1="226" x2="770" y2="226" stroke="#f0f0f0" stroke-width="1"/><text x="218" y="216" font-size="10" fill="#1f2937" font-weight="500">Fatima Z.</text><text x="338" y="216" font-size="10" fill="#6b7280">212661234567</text><text x="458" y="216" font-size="10" fill="#6b7280">Morocco</text><text x="545" y="216" font-size="10" fill="#1f2937">3</text><text x="598" y="216" font-size="10" fill="#1f2937">850 MAD</text><text x="688" y="216" font-size="10" fill="#6b7280">5d ago</text><line x1="210" y1="258" x2="770" y2="258" stroke="#f0f0f0" stroke-width="1"/><text x="218" y="248" font-size="10" fill="#1f2937" font-weight="500">Karim M.</text><text x="338" y="248" font-size="10" fill="#6b7280">96655512345</text><text x="458" y="248" font-size="10" fill="#6b7280">Saudi Arabia</text><text x="545" y="248" font-size="10" fill="#1f2937">2</text><text x="598" y="248" font-size="10" fill="#1f2937">320 SAR</text><text x="688" y="248" font-size="10" fill="#6b7280">1w ago</text><line x1="210" y1="290" x2="770" y2="290" stroke="#f0f0f0" stroke-width="1"/><text x="218" y="280" font-size="10" fill="#1f2937" font-weight="500">Nour H.</text><text x="338" y="280" font-size="10" fill="#6b7280">21655123456</text><text x="458" y="280" font-size="10" fill="#6b7280">Tunisia</text><text x="545" y="280" font-size="10" fill="#1f2937">1</text><text x="598" y="280" font-size="10" fill="#1f2937">95 TND</text><text x="688" y="280" font-size="10" fill="#6b7280">2w ago</text><line x1="210" y1="322" x2="770" y2="322" stroke="#f0f0f0" stroke-width="1"/><text x="218" y="312" font-size="10" fill="#1f2937" font-weight="500">Sara L.</text><text x="338" y="312" font-size="10" fill="#6b7280">20101234567</text><text x="458" y="312" font-size="10" fill="#6b7280">Egypt</text><text x="545" y="312" font-size="10" fill="#1f2937">4</text><text x="598" y="312" font-size="10" fill="#1f2937">2,800 EGP</text><text x="688" y="312" font-size="10" fill="#6b7280">3d ago</text><rect x="430" y="370" width="120" height="30" rx="6" fill="#ffffff" stroke="#d1d5db" stroke-width="1"/><text x="465" y="389" font-size="11" fill="#6b7280">Load more</text>
<!-- Annotations -->
<g class="doc-annotations">
<circle cx="90" cy="211" r="16" fill="#ef4444" opacity="0.10"/><circle cx="90" cy="211" r="16" fill="none" stroke="#ef4444" stroke-width="2" stroke-dasharray="4 2"/><g transform="translate(96, 213)"><path d="M0,0 L0,14 L4,10 L7,16 L9,15 L6,9 L11,9 Z" fill="#ef4444" stroke="#fff" stroke-width="0.7"/></g><rect x="110" y="202" width="37.5" height="17" rx="4" fill="#ef4444"/><text x="115" y="214" font-size="9" fill="#fff" font-weight="600">Click</text>
</g>
</svg>
