<svg xmlns="http://www.w3.org/2000/svg" viewBox="0 0 800 450" width="800" height="450">
<defs>
  <style>
    text { font-family: -apple-system, BlinkMacSystemFont, 'Segoe UI', sans-serif; }
  </style>
</defs>
<rect width="800" height="450" fill="#f4f5f7" rx="8"/><rect x="0" y="0" width="180" height="450" fill="#ffffff" rx="0"/><line x1="180" y1="0" x2="180" y2="450" stroke="#e5e7eb" stroke-width="1"/><rect x="180" y="0" width="620" height="44" fill="#ffffff"/><line x1="180" y1="44" x2="800" y2="44" stroke="#e5e7eb" stroke-width="1"/>
<!-- Breadcrumb -->
<text x="210" y="68" font-size="11" fill="#6b7280">Customers</text><text x="270" y="68" font-size="11" fill="#6b7280">›</text><text x="282" y="68" font-size="11" fill="#1f2937" font-weight="500">Ahmed B.</text>
<!-- Header with avatar -->
<circle cx="225" cy="100" r="16" fill="#ecfdf5"/><text x="225" y="104" font-size="11" fill="#059669" text-anchor="middle" font-weight="700">AB</text><text x="250" y="96" font-size="18" font-weight="700" fill="#1f2937">Ahmed B.</text><text x="250" y="112" font-size="11" fill="#6b7280">213555123456</text>
<!-- Left: Order History -->
<text x="210" y="145" font-size="12" font-weight="600" fill="#1f2937">Order History</text>
<rect x="210" y="155" width="350" height="34" rx="6" fill="#ffffff" stroke="#e5e7eb" stroke-width="1"/><text x="222" y="176" font-size="10" fill="#1f2937" font-weight="500">#42</text><rect x="260" y="165" width="55" height="16" rx="8" fill="#d1fae5"/><text x="268" y="176" font-size="9" fill="#059669">Delivered</text><text x="430" y="176" font-size="10" fill="#1f2937">3,200 DZD</text><text x="510" y="176" font-size="10" fill="#6b7280">2d ago</text>
<rect x="210" y="195" width="350" height="34" rx="6" fill="#ffffff" stroke="#e5e7eb" stroke-width="1"/><text x="222" y="216" font-size="10" fill="#1f2937" font-weight="500">#38</text><rect x="260" y="205" width="55" height="16" rx="8" fill="#eff6ff"/><text x="268" y="216" font-size="9" fill="#3b82f6">Shipped</text><text x="430" y="216" font-size="10" fill="#1f2937">2,800 DZD</text><text x="510" y="216" font-size="10" fill="#6b7280">5d ago</text>
<rect x="210" y="235" width="350" height="34" rx="6" fill="#ffffff" stroke="#e5e7eb" stroke-width="1"/><text x="222" y="256" font-size="10" fill="#1f2937" font-weight="500">#31</text><rect x="260" y="245" width="70" height="16" rx="8" fill="#d1fae5"/><text x="268" y="256" font-size="9" fill="#059669">Delivered</text><text x="430" y="256" font-size="10" fill="#1f2937">2,500 DZD</text><text x="510" y="256" font-size="10" fill="#6b7280">2w ago</text>
<rect x="210" y="275" width="350" height="34" rx="6" fill="#ffffff" stroke="#e5e7eb" stroke-width="1"/><text x="222" y="296" font-size="10" fill="#1f2937" font-weight="500">#25</text><rect x="260" y="285" width="70" height="16" rx="8" fill="#d1fae5"/><text x="268" y="296" font-size="9" fill="#059669">Delivered</text><text x="430" y="296" font-size="10" fill="#1f2937">2,000 DZD</text><text x="510" y="296" font-size="10" fill="#6b7280">1m ago</text>
<rect x="210" y="315" width="350" height="34" rx="6" fill="#ffffff" stroke="#e5e7eb" stroke-width="1"/><text x="222" y="336" font-size="10" fill="#1f2937" font-weight="500">#18</text><rect x="260" y="325" width="70" height="16" rx="8" fill="#d1fae5"/><text x="268" y="336" font-size="9" fill="#059669">Delivered</text><text x="430" y="336" font-size="10" fill="#1f2937">2,000 DZD</text><text x="510" y="336" font-size="10" fill="#6b7280">2m ago</text>
<!-- Right: Contact Info -->
<rect x="580" y="130" width="190" height="155" rx="8" fill="#ffffff" stroke="#e5e7eb" stroke-width="1"/>
<text x="596" y="152" font-size="11" font-weight="600" fill="#1f2937">Contact Info</text>
<text x="596" y="172" font-size="10" fill="#6b7280">213555123456</text>
<text x="596" y="190" font-size="10" fill="#6b7280">ahmed@email.com</text>
<text x="596" y="208" font-size="10" fill="#6b7280">Algiers, Algeria</text>
<rect x="596" y="220" width="82" height="24" rx="6" fill="#059669"/><text x="614" y="236" font-size="9" fill="#ffffff" font-weight="500">WhatsApp</text>
<text x="596" y="260" font-size="10" fill="#6b7280">Rue des Frères, Bab El Oued</text>
<!-- Right: Statistics -->
<rect x="580" y="295" width="190" height="120" rx="8" fill="#ffffff" stroke="#e5e7eb" stroke-width="1"/>
<text x="596" y="317" font-size="11" font-weight="600" fill="#1f2937">Statistics</text>
<text x="596" y="337" font-size="10" fill="#6b7280">Total Spent</text><text x="730" y="337" font-size="10" fill="#1f2937" font-weight="500" text-anchor="end">12,500 DZD</text>
<text x="596" y="357" font-size="10" fill="#6b7280">Orders</text><text x="730" y="357" font-size="10" fill="#1f2937" font-weight="500" text-anchor="end">5</text>
<text x="596" y="377" font-size="10" fill="#6b7280">Avg. Order</text><text x="730" y="377" font-size="10" fill="#1f2937" font-weight="500" text-anchor="end">2,500 DZD</text>
<line x1="596" y1="387" x2="758" y2="387" stroke="#f0f0f0" stroke-width="1"/>
<text x="596" y="403" font-size="10" fill="#6b7280">First Order</text><text x="730" y="403" font-size="10" fill="#6b7280" text-anchor="end">Jan 15, 2026</text>
<!-- Annotations -->
<g class="doc-annotations">
<circle cx="490" cy="176" r="16" fill="#ef4444" opacity="0.10"/><circle cx="490" cy="176" r="16" fill="none" stroke="#ef4444" stroke-width="2" stroke-dasharray="4 2"/><g transform="translate(496, 178)"><path d="M0,0 L0,14 L4,10 L7,16 L9,15 L6,9 L11,9 Z" fill="#ef4444" stroke="#fff" stroke-width="0.7"/></g><rect x="510" y="167" width="52" height="17" rx="4" fill="#ef4444"/><text x="515" y="179" font-size="9" fill="#fff" font-weight="600">Details</text>
</g>
</svg>
